<svg xmlns="http://www.w3.org/2000/svg" viewBox="0 0 200 200" width="200" height="200">
  <g fill="#4a6f52">
    <path d="M100 10 C 140 30, 170 70, 175 120 C 165 130, 150 132, 140 122 C 138 100, 130 80, 118 70 C 122 90, 120 110, 110 122 C 96 124, 90 110, 90 96 C 84 110, 70 116, 58 108 C 60 88, 72 70, 90 60 C 70 60, 52 72, 42 92 C 36 80, 40 60, 56 48 C 70 28, 88 14, 100 10 Z"></path>
  </g>
  <g fill="#163828" opacity="0.5">
    <path d="M40 180 C 50 130, 80 100, 120 95 C 124 100, 122 108, 116 110 C 100 116, 84 130, 76 148 C 90 134, 110 128, 128 132 C 130 138, 124 144, 118 144 C 102 144, 88 152, 80 168 Z"></path>
  </g>
</svg>